<?xml version="1.0" ?><!DOCTYPE svg  PUBLIC '-//W3C//DTD SVG 1.1//EN'  'http://www.w3.org/Graphics/SVG/1.1/DTD/svg11.dtd'><svg enable-background="new 0 0 48 48" height="48px" id="Layer_3" version="1.1" viewBox="0 0 48 48" width="48px" xml:space="preserve" xmlns="http://www.w3.org/2000/svg" xmlns:xlink="http://www.w3.org/1999/xlink"><path d="M34.795,30.028l-0.007,0.002l-0.114-0.427c3.697-3.068,6.053-7.697,6.053-12.876C40.727,7.489,33.238,0,24,0  C14.763,0,7.273,7.489,7.273,16.727c0,5.103,2.292,9.665,5.896,12.733l-0.452,1.687h0.001L9.852,41.845l-0.874,3.264l3.908-1.657  l0.019-0.062l2.612-1.148l1.715,2.319L19.772,48l0.874-3.266l3.027-11.297c0.109,0.002,0.216,0.017,0.326,0.017  c0.048,0,0.094-0.007,0.142-0.007l3.024,11.287L28.04,48l2.541-3.44l1.715-2.319l2.612,1.148l0.019,0.062l3.908,1.657l-0.874-3.264  L34.795,30.028z M18.1,41.311l-1.704-2.298l-2.628,1.138l2.328-8.683c1.312,0.705,2.731,1.231,4.224,1.566L18.1,41.311z   M11.733,16.727C11.733,9.952,17.226,4.46,24,4.46s12.267,5.492,12.267,12.267c0,6.774-5.492,12.266-12.267,12.266  S11.733,23.501,11.733,16.727z M31.417,39.013l-1.704,2.298l-2.207-8.23c1.495-0.319,2.914-0.842,4.232-1.532l2.307,8.603  L31.417,39.013z" fill="#241F20"/></svg>